<?xml version="1.0" encoding="utf-8"?>
<!-- Svg Vector Icons : http://www.onlinewebfonts.com/icon -->
<!DOCTYPE svg PUBLIC "-//W3C//DTD SVG 1.1//EN" "http://www.w3.org/Graphics/SVG/1.1/DTD/svg11.dtd">
<svg version="1.1" xmlns="http://www.w3.org/2000/svg" xmlns:xlink="http://www.w3.org/1999/xlink" x="0px" y="0px" viewBox="0 0 1000 1000" enable-background="new 0 0 1000 1000" xml:space="preserve">
<metadata> Svg Vector Icons : http://www.onlinewebfonts.com/icon </metadata>
<g><g transform="translate(0.000000,511.000000) scale(0.100000,-0.100000)"><path d="M4750.2,4985.1c-215.2-44.2-393.8-121-1075.9-461.1c-707-355.4-787.7-391.9-1085.5-513c-489.9-197.9-1041.3-370.8-1608.1-503.4l-303.5-73V3110c0-854.9,124.9-1811.7,345.8-2658.9c413.1-1592.7,1254.5-3045.1,2363.1-4080.7c497.6-463,1027.8-854.9,1450.5-1072l172.9-88.4l172.9,101.8c511,299.7,937.5,637.8,1477.4,1170c1233.4,1218,2067.2,2772.3,2439.9,4551.3c138.3,653.2,222.9,1456.3,222.9,2092.2v309.3l-301.6,73c-568.7,132.6-1120.1,305.5-1610,503.4c-297.8,121-378.5,157.5-1085.5,513c-365,182.5-728.1,355.4-806.9,384.2C5234.4,5010.1,4996.2,5035,4750.2,4985.1z M5374.6,4545.1c74.9-28.8,459.2-213.3,854.9-413.1c1027.9-513,1696.4-768.5,2551.4-972.1c76.8-17.3,142.2-38.4,146-46.1c13.4-23.1-26.9-739.7-55.7-1010.6C8752.1,1014,8475.5,14.9,8031.7-922.6c-324.7-687.8-843.4-1456.3-1367.9-2034.6c-386.2-424.6-962.5-922.2-1417.9-1225.7L5000-4346.2l-138.3,82.6c-1139.3,670.5-2167.1,1804-2814.6,3100.8c-491.8,979.8-785.8,2015.3-918.3,3227.6c-28.8,267-69.2,1025.9-55.7,1049c3.8,7.7,69.2,28.8,146,46.1c854.9,203.6,1523.5,459.2,2551.4,972.1c964.5,482.2,958.7,480.3,1268,470.7C5201.7,4597,5267.1,4587.4,5374.6,4545.1z"/><path d="M4696.5,2589.3c-36.5-36.5-32.7-3421.7,3.8-3452.4c17.3-15.4,123-21.1,330.4-17.3l305.5,5.8V864.1v1738.7l-307.4,5.8C4806,2612.4,4713.7,2606.6,4696.5,2589.3z"/><path d="M4696.5-1598.9c-32.7-32.7-32.7-670.5,0-703.2c26.9-26.9,586-32.7,626.3-7.7c17.3,13.4,23.1,99.9,19.2,370.8l-5.8,353.5l-307.4,5.8C4806-1575.8,4713.7-1581.6,4696.5-1598.9z"/></g></g>
</svg>