<?xml version="1.0" standalone="no"?>
<!DOCTYPE svg PUBLIC "-//W3C//DTD SVG 20010904//EN"
 "http://www.w3.org/TR/2001/REC-SVG-20010904/DTD/svg10.dtd">
<svg version="1.0" xmlns="http://www.w3.org/2000/svg"
 width="512.000000pt" height="512.000000pt" viewBox="0 0 512.000000 512.000000"
 preserveAspectRatio="xMidYMid meet">

<g transform="translate(0.000000,512.000000) scale(0.100000,-0.100000)"
fill="#12395b" stroke="none">
<path d="M1435 4520 c-616 -329 -1124 -601 -1130 -603 -14 -5 11 -475 35 -647
107 -784 418 -1501 922 -2131 337 -421 808 -845 1211 -1089 l87 -53 88 53
c311 189 711 526 992 835 644 709 1018 1491 1140 2385 19 135 49 635 39 644
-6 5 -2258 1206 -2261 1205 -2 0 -507 -270 -1123 -599z m2115 -248 l975 -520
-1 -144 c-2 -213 -40 -471 -109 -749 -218 -871 -759 -1680 -1541 -2305 -62
-49 -157 -120 -213 -158 l-101 -69 -101 69 c-626 427 -1211 1117 -1517 1789
-213 470 -341 998 -345 1428 l-2 139 980 523 c539 288 985 522 990 521 6 -2
449 -238 985 -524z"/>
<path d="M1650 4155 c-498 -266 -909 -486 -914 -488 -11 -4 9 -257 35 -429 34
-232 86 -442 169 -681 146 -426 399 -866 711 -1242 108 -130 427 -449 554
-554 118 -98 340 -261 355 -261 15 0 237 163 355 261 138 114 462 441 572 576
472 581 759 1212 863 1900 20 131 46 421 39 427 -6 5 -1829 976 -1831 975 -2
0 -410 -218 -908 -484z m1180 -447 c1 -51 -72 -1565 -76 -1585 -4 -23 -5 -23
-209 -23 l-205 0 0 38 c0 46 -67 1372 -76 1500 l-6 92 286 0 286 0 0 -22z
m-133 -1829 c90 -43 140 -112 163 -223 29 -142 -37 -296 -153 -354 -96 -48
-226 -49 -316 -2 -47 24 -103 83 -132 140 -21 39 -24 59 -24 150 0 94 3 110
27 155 82 157 268 214 435 134z"/>
</g>
</svg>
