<?xml version="1.0" standalone="no"?>
<!DOCTYPE svg PUBLIC "-//W3C//DTD SVG 20010904//EN"
 "http://www.w3.org/TR/2001/REC-SVG-20010904/DTD/svg10.dtd">
<svg version="1.0" xmlns="http://www.w3.org/2000/svg"
 width="1500.000000pt" height="1150.000000pt" viewBox="0 0 1500.000000 1150.000000"
 preserveAspectRatio="xMidYMid meet">

<g transform="translate(0.000000,1150.000000) scale(0.100000,-0.100000)"
fill="#12395b" stroke="none">
<path d="M0 5750 l0 -5750 7500 0 7500 0 0 5750 0 5750 -7500 0 -7500 0 0
-5750z m7446 5101 c49 -22 111 -75 119 -102 6 -18 18 -19 237 -19 262 0 303
-7 385 -70 34 -25 58 -55 83 -104 l35 -69 3 -167 4 -166 -40 -13 c-49 -16 -59
-11 -72 40 -14 49 -42 79 -76 79 -24 0 -401 -114 -436 -132 -10 -5 -18 -16
-18 -26 0 -30 162 -637 174 -648 6 -7 131 -82 279 -168 366 -214 1065 -623
1702 -996 650 -381 679 -395 856 -426 78 -13 106 -14 173 -4 96 14 218 57 299
105 33 20 62 34 64 31 3 -3 10 -192 16 -421 l11 -416 -30 -24 c-43 -35 -179
-100 -264 -126 -103 -32 -243 -32 -355 0 -144 40 -146 41 -1110 606 -143 84
-447 261 -675 395 -228 133 -615 360 -860 503 -245 143 -533 312 -640 374
l-196 115 -108 471 c-60 260 -112 481 -116 491 -4 13 -13 -9 -27 -70 -11 -49
-150 -651 -308 -1339 -158 -687 -290 -1253 -294 -1257 -3 -4 -74 32 -156 81
-289 170 -733 430 -1090 638 -198 116 -623 365 -945 554 -647 380 -756 438
-880 470 -190 49 -394 16 -563 -93 -26 -17 -49 -29 -51 -27 -4 4 -26 669 -26
780 l0 67 48 30 c88 55 140 80 224 108 195 64 428 22 664 -120 49 -29 292
-172 539 -316 248 -145 524 -307 615 -360 91 -53 246 -144 345 -202 99 -58
308 -180 464 -272 155 -91 286 -166 290 -166 7 0 26 76 361 1435 105 424 198
788 208 810 25 59 70 105 127 131 l50 24 460 0 c426 0 463 -2 501 -19z m-4280
-2041 c167 -42 196 -57 729 -370 182 -106 562 -329 845 -495 283 -165 730
-427 993 -580 322 -189 477 -285 477 -296 0 -17 -168 -750 -172 -755 -2 -1
-39 19 -83 45 -44 27 -161 95 -260 153 -352 206 -2111 1236 -2174 1273 -245
144 -450 197 -624 161 -85 -17 -195 -61 -270 -107 -27 -17 -51 -29 -52 -27 -2
2 -9 192 -16 422 l-12 420 28 22 c47 37 207 112 286 133 97 26 205 26 305 1z
m4504 -365 c261 -153 565 -331 675 -395 110 -64 322 -188 470 -275 638 -373
809 -473 1145 -671 435 -256 528 -303 654 -334 81 -19 112 -22 198 -17 140 8
236 38 356 114 l52 33 1 -33 c0 -17 6 -209 12 -425 l12 -393 -36 -23 c-20 -13
-72 -42 -117 -65 -233 -117 -430 -110 -702 27 -63 31 -394 221 -735 421 -341
200 -782 458 -980 574 -198 115 -434 254 -525 307 -91 53 -294 173 -452 265
-158 92 -290 175 -293 184 -8 27 -225 974 -225 983 0 5 3 7 8 5 4 -2 221 -129
482 -282z m-4436 -759 c115 -39 216 -91 541 -282 160 -94 454 -267 655 -384
201 -117 439 -257 530 -310 91 -53 356 -209 590 -345 234 -136 429 -251 433
-255 6 -5 -159 -756 -169 -768 -1 -2 -432 247 -956 554 -524 306 -1061 620
-1193 698 -262 153 -371 206 -490 236 -183 47 -377 9 -571 -110 l-31 -20 -6
188 c-4 103 -10 295 -13 427 l-6 240 53 32 c77 46 184 94 254 115 92 27 274
20 379 -16z m4568 -425 c178 -103 427 -249 553 -323 221 -130 600 -352 1150
-673 143 -84 393 -230 555 -325 404 -238 470 -268 635 -292 143 -20 308 15
448 97 l72 43 6 -77 c4 -42 10 -232 14 -423 l8 -347 -59 -37 c-215 -138 -412
-166 -641 -89 -117 39 -140 51 -438 225 -562 329 -905 529 -1350 790 -269 157
-616 360 -771 450 l-281 165 -113 490 c-62 269 -115 496 -117 503 -3 6 -3 12
1 12 3 0 151 -85 328 -189z m-4600 -672 c118 -32 268 -112 858 -458 294 -173
654 -384 800 -469 146 -85 357 -209 470 -275 113 -66 257 -151 320 -188 89
-51 114 -71 112 -85 -8 -46 -164 -721 -170 -735 -6 -13 -88 31 -457 247 -247
145 -549 322 -670 393 -121 71 -407 238 -635 372 -452 265 -560 317 -719 344
-145 25 -279 -1 -440 -86 -52 -27 -95 -48 -97 -47 -3 4 -24 681 -24 777 l0 70
69 41 c209 124 381 153 583 99z m4962 -647 c193 -112 522 -305 731 -427 209
-122 526 -308 705 -412 179 -105 431 -252 560 -328 336 -198 440 -238 620
-238 141 0 303 51 406 129 l31 23 7 -102 c3 -56 9 -249 12 -428 l7 -326 -59
-35 c-307 -185 -535 -179 -889 25 -61 35 -348 203 -640 373 -291 171 -676 396
-855 501 -179 105 -431 252 -560 328 -129 76 -237 139 -239 141 -4 4 -231 983
-231 997 0 10 -11 16 394 -221z m3896 -2412 c175 -51 332 -218 375 -401 74
-316 -117 -630 -424 -695 -225 -47 -457 47 -585 240 -114 172 -121 422 -17
601 132 227 393 329 651 255z m-5845 -116 c113 -21 216 -51 318 -91 l87 -35 0
-245 c0 -192 -3 -244 -12 -240 -7 2 -53 32 -102 66 -154 105 -310 152 -511
152 -122 1 -183 -10 -259 -46 -197 -93 -255 -306 -129 -477 48 -66 137 -129
266 -190 288 -135 467 -230 536 -284 215 -168 317 -413 282 -678 -47 -349
-301 -606 -681 -689 -160 -36 -552 -26 -785 19 -103 20 -186 46 -191 59 -5 14
-44 446 -44 484 l0 30 103 -49 c192 -91 374 -138 577 -147 112 -5 146 -3 195
11 137 40 246 127 279 223 9 26 16 79 16 118 0 60 -5 82 -31 133 -49 99 -92
129 -399 279 -301 148 -404 210 -496 301 -149 147 -208 293 -208 512 0 212 60
372 191 517 129 141 380 255 620 283 97 11 272 3 378 -16z m-3115 -939 c5
-901 6 -922 27 -995 80 -282 253 -421 522 -420 214 1 385 98 466 265 73 149
69 85 73 1133 l3 942 235 0 235 0 -4 -957 c-3 -938 -4 -960 -24 -1043 -62
-247 -158 -415 -310 -545 -177 -151 -406 -225 -698 -225 -615 0 -945 263
-1030 820 -12 78 -15 260 -15 1023 l0 927 258 -2 257 -3 5 -920z m5188 627
c57 -163 178 -506 268 -762 90 -256 244 -694 342 -974 99 -280 182 -504 185
-499 3 5 62 160 131 344 68 184 260 696 426 1139 166 443 302 814 302 825 0
11 -19 65 -41 119 -23 55 -41 101 -41 103 0 1 127 3 283 3 l282 0 42 -117 c44
-126 702 -1995 810 -2303 36 -102 73 -209 83 -237 l19 -53 -283 0 -284 0 -68
197 c-37 109 -73 214 -79 233 l-12 35 -480 3 -480 2 -80 -232 -80 -233 -483 0
-483 0 -38 110 c-21 61 -57 165 -80 232 l-41 123 -478 0 -478 0 -10 -27 c-6
-16 -36 -102 -67 -193 -31 -91 -63 -184 -72 -207 l-16 -43 -253 0 c-140 0
-254 3 -254 6 0 3 124 337 276 742 580 1548 644 1721 644 1734 0 8 -18 60 -40
117 -22 56 -40 104 -40 107 0 2 127 4 283 4 l282 0 103 -298z"/>
<path d="M11775 3447 c-146 -49 -255 -158 -304 -304 -28 -84 -29 -216 -1 -304
51 -168 191 -291 363 -320 209 -35 420 103 487 318 22 71 27 198 10 270 -30
130 -126 250 -247 310 -69 34 -84 38 -172 40 -60 2 -111 -2 -136 -10z m237
-162 c80 -28 118 -94 105 -185 -6 -47 -31 -82 -75 -108 l-33 -19 25 -17 c36
-23 54 -62 76 -168 10 -51 22 -101 25 -110 6 -16 0 -18 -48 -18 l-55 0 -16 48
c-8 26 -18 67 -21 92 -15 95 -57 130 -155 130 l-50 0 0 -135 0 -135 -50 0 -50
0 0 315 0 315 23 5 c84 18 231 13 299 -10z"/>
<path d="M11790 3116 l0 -106 48 0 c147 0 219 87 143 172 -28 31 -33 33 -110
36 l-81 4 0 -106z"/>
<path d="M7830 2248 c-62 -178 -144 -410 -181 -517 -38 -106 -69 -195 -69
-197 0 -2 155 -4 345 -4 275 0 345 3 345 13 0 7 -30 107 -66 222 -36 116 -106
341 -156 500 -49 160 -93 294 -97 298 -4 4 -59 -138 -121 -315z"/>
<path d="M10123 2393 c-34 -98 -113 -326 -177 -507 -64 -181 -116 -335 -116
-343 0 -11 65 -13 346 -13 293 0 345 2 341 14 -3 8 -77 242 -164 520 -87 278
-160 506 -163 506 -3 0 -33 -80 -67 -177z"/>
</g>
</svg>
